<?xml version="1.0" encoding="utf-8"?>
<!-- Generator: Adobe Illustrator 21.1.0, SVG Export Plug-In . SVG Version: 6.00 Build 0)  -->
<svg version="1.1" id="Capa_1" xmlns="http://www.w3.org/2000/svg" xmlns:xlink="http://www.w3.org/1999/xlink" x="0px" y="0px"
	 viewBox="0 0 585.1 642.1" style="enable-background:new 0 0 585.1 642.1;" xml:space="preserve">
<style type="text/css">
	.st0{fill:#57E181;}
	.st1{fill:#0D964D;}
</style>
<path class="st0" d="M307.8,80.4c-14.8,2-76.3,12.5-102,54.1c-3.3,5.4-6.1,11.3-8,17.8c-1.7,5.7-2.8,11.8-3.2,18.4
	c-4.7,79.8,25.9,166-55.7,174.1h0c-71.9-3.7-55-96.5-46.3-125.4C123.7,137.9,202.6,80,294.9,80C299.3,80,303.6,80.1,307.8,80.4z"/>
<path class="st1" d="M511.4,296.5c0,119.6-96.9,216.5-216.5,216.5c-47.3,0-91.1-15.2-126.7-40.9l-40.3,64.3l0,0l-1.9,3l0,0
	c-9,13.3-24.3,22.1-41.5,22.1c-27.7,0-50.1-22.4-50.1-50.1c0-16.9,8.3-31.8,21.1-40.9l64.4-46.7l47.2-34.2
	c10,11.5,21.5,21.6,34.3,29.9c26.1,17.2,57.4,27.2,90.9,27.2c92.1,0,166.7-75.3,166.7-168.2s-74.6-168.2-166.7-168.2
	c-11.6,0-22.9,1.2-33.8,3.5c-18.9,3.9-36.6,11.1-52.6,20.8c25.7-41.6,87.3-52.1,102-54.1c0.8,0,1.6,0.1,2.4,0.2
	C422.6,88.4,511.4,182.1,511.4,296.5z"/>
<path class="st0" d="M267.9,365.5h-24.4c-4.4,0-8-3.6-8-8v-76.8c0-4.4,3.6-8,8-8h24.4c4.4,0,8,3.6,8,8v76.8
	C275.9,362,272.3,365.5,267.9,365.5z"/>
<path class="st0" d="M320.8,365.5h-24.4c-4.4,0-8-3.6-8-8v-57.6c0-4.4,3.6-8,8-8h24.4c4.4,0,8,3.6,8,8v57.6
	C328.8,362,325.3,365.5,320.8,365.5z"/>
<path class="st0" d="M372.2,365.5h-24.4c-4.4,0-8-3.6-8-8V249.1c0-4.4,3.6-8,8-8h24.4c4.4,0,8,3.6,8,8v108.5
	C380.2,362,376.6,365.5,372.2,365.5z"/>
<path class="st0" d="M360,184.4c-11.2,0-20.2,9.1-20.2,20.2c0,3.1,0.7,6,1.9,8.6l-24.6,24.6c-2.6-1.2-5.4-1.9-8.5-1.9
	c-6.1,0-11.6,2.7-15.3,7l-17.4-8.7c0-0.1,0-0.3,0-0.4c0-11.2-9.1-20.2-20.2-20.2s-20.2,9.1-20.2,20.2s9.1,20.2,20.2,20.2
	c6,0,11.3-2.6,15-6.7l17.6,8.8c0,11.2,9.1,20.2,20.2,20.2c11.2,0,20.2-9.1,20.2-20.2c0-3-0.7-5.9-1.9-8.5l24.6-24.6
	c2.6,1.2,5.4,1.8,8.4,1.8c11.2,0,20.2-9.1,20.2-20.2C380.2,193.4,371.1,184.4,360,184.4z"/>
</svg>
